<svg xmlns="http://www.w3.org/2000/svg" viewBox="0 0 50 20" width="50" height="20">
  <rect width="50" height="20" rx="3" fill="#B31317"/>
  <path d="M4 14.5L7.2 4.5H9.8L8.6 8.3H12.7L13.9 4.5H16.5L13.3 14.5H10.7L11.8 10.7H7.7L6.6 14.5H4Z" fill="#FFFFFF"/>
  <path d="M17.8 14.5L21 4.5H23.6L20.4 14.5H17.8Z" fill="#FFFFFF"/>
  <path d="M25 14.5L28.2 4.5H33.2C35.5 4.5 36.8 5.6 36.1 7.6C35.5 9.3 34.1 10.3 32.2 10.5L30.9 14.5H28.3L29.3 11.2H31.1C32.1 11.2 32.8 10.7 33.1 9.8C33.4 8.9 32.8 8.1 31.6 8.1H29.7L27.6 14.5H25Z" fill="#FFFFFF"/>
  <path d="M37.5 14.5L40.7 4.5H47L46.2 7H42.5L42 8.7H45.5L44.8 11.1H41.3L40.2 14.5H37.5Z" fill="#FFFFFF"/>
</svg>
